<svg xmlns="http://www.w3.org/2000/svg" width="21.213" height="21.214" viewBox="0 0 21.213 21.214">
  <path id="Icon_ionic-ios-person" data-name="Icon ionic-ios-person" d="M25.7,25.178c-.4-1.757-2.668-2.613-3.453-2.889a25.742,25.742,0,0,0-2.878-.552,2.924,2.924,0,0,1-1.331-.613,11.636,11.636,0,0,1-.088-2.724,8.194,8.194,0,0,0,.63-1.2,15.463,15.463,0,0,0,.464-2.094s.453,0,.613-.8a7.827,7.827,0,0,0,.409-1.851c-.033-.635-.381-.619-.381-.619a9.686,9.686,0,0,0,.376-2.834c.05-2.271-1.729-4.508-4.95-4.508-3.265,0-5.005,2.237-4.956,4.508a10.1,10.1,0,0,0,.37,2.834s-.348-.017-.381.619a7.827,7.827,0,0,0,.409,1.851c.155.8.613.8.613.8a15.463,15.463,0,0,0,.464,2.094,8.194,8.194,0,0,0,.63,1.2,11.636,11.636,0,0,1-.088,2.724,2.924,2.924,0,0,1-1.331.613,25.743,25.743,0,0,0-2.878.552c-.784.276-3.055,1.133-3.453,2.889a.442.442,0,0,0,.436.536H25.272A.441.441,0,0,0,25.7,25.178Z" transform="translate(-4.501 -4.5)" fill="#fff"/>
</svg>
